<?xml version="1.0" encoding="UTF-8"?>
<svg width="512px" height="512px" viewBox="0 0 512 512" version="1.1" xmlns="http://www.w3.org/2000/svg" xmlns:xlink="http://www.w3.org/1999/xlink">
    <!-- Generator: Sketch 52.5 (67469) - http://www.bohemiancoding.com/sketch -->
    <title>Slice 1</title>
    <desc>Created with Sketch.</desc>
    <g id="Page-1" stroke="none" stroke-width="1" fill="none" fill-rule="evenodd">
        <g id="solar-energy" fill="#FFFFFF">
            <path d="M256,426.667969 C161.894531,426.667969 85.332031,350.105469 85.332031,256 C85.332031,161.894531 161.894531,85.332031 256,85.332031 C350.105469,85.332031 426.667969,161.894531 426.667969,256 C426.667969,350.105469 350.105469,426.667969 256,426.667969 Z M256,102.398438 C171.308594,102.398438 102.398438,171.308594 102.398438,256 C102.398438,340.691406 171.308594,409.601562 256,409.601562 C340.691406,409.601562 409.601562,340.691406 409.601562,256 C409.601562,171.308594 340.691406,102.398438 256,102.398438 Z" id="Shape" fill-rule="nonzero"></path>
            <path d="M256,512 C251.289062,512 247.464844,508.175781 247.464844,503.464844 L247.464844,452.265625 C247.464844,447.554688 251.289062,443.734375 256,443.734375 C260.710938,443.734375 264.535156,447.554688 264.535156,452.265625 L264.535156,503.464844 C264.535156,508.175781 260.710938,512 256,512 Z" id="Path"></path>
            <path d="M256,68.265625 C251.289062,68.265625 247.464844,64.445312 247.464844,59.734375 L247.464844,8.535156 C247.464844,3.824219 251.289062,0 256,0 C260.710938,0 264.535156,3.824219 264.535156,8.535156 L264.535156,59.734375 C264.535156,64.445312 260.710938,68.265625 256,68.265625 Z" id="Path"></path>
            <path d="M59.734375,264.535156 L8.535156,264.535156 C3.824219,264.535156 0,260.710938 0,256 C0,251.289062 3.824219,247.464844 8.535156,247.464844 L59.734375,247.464844 C64.445312,247.464844 68.265625,251.289062 68.265625,256 C68.265625,260.710938 64.445312,264.535156 59.734375,264.535156 Z" id="Path"></path>
            <path d="M503.464844,264.535156 L452.265625,264.535156 C447.554688,264.535156 443.734375,260.710938 443.734375,256 C443.734375,251.289062 447.554688,247.464844 452.265625,247.464844 L503.464844,247.464844 C508.175781,247.464844 512,251.289062 512,256 C512,260.710938 508.175781,264.535156 503.464844,264.535156 Z" id="Path"></path>
            <path d="M213.332031,384 C212.019531,384 210.695312,383.703125 209.46875,383.078125 C205.976562,381.304688 204.144531,377.371094 205.023438,373.546875 L228.207031,273.066406 L187.734375,273.066406 C184.386719,273.066406 181.359375,271.113281 179.96875,268.082031 C178.578125,265.046875 179.089844,261.476562 181.28125,258.953125 L292.214844,130.953125 C294.785156,127.984375 299.042969,127.15625 302.53125,128.929688 C306.03125,130.703125 307.867188,134.640625 306.976562,138.460938 L283.792969,238.933594 L324.265625,238.933594 C327.613281,238.933594 330.640625,240.886719 332.03125,243.917969 C333.421875,246.953125 332.910156,250.523438 330.71875,253.046875 L219.785156,381.046875 C218.121094,382.976562 215.75,384 213.332031,384 Z M206.421875,256 L238.933594,256 C241.535156,256 243.992188,257.1875 245.605469,259.21875 C247.226562,261.246094 247.824219,263.910156 247.246094,266.453125 L229.367188,343.9375 L305.578125,256 L273.066406,256 C270.464844,256 268.007812,254.8125 266.386719,252.78125 C264.773438,250.753906 264.167969,248.089844 264.746094,245.546875 L282.632812,168.0625 L206.421875,256 Z" id="Shape" fill-rule="nonzero"></path>
            <path d="M430.984375,439.519531 C428.800781,439.519531 426.617188,438.679688 424.953125,437.019531 L388.753906,400.820312 C385.417969,397.484375 385.417969,392.089844 388.753906,388.753906 C392.089844,385.417969 397.484375,385.417969 400.820312,388.753906 L437.019531,424.953125 C440.355469,428.289062 440.355469,433.679688 437.019531,437.019531 C435.355469,438.679688 433.167969,439.519531 430.984375,439.519531 Z" id="Path"></path>
            <path d="M117.222656,125.746094 C115.039062,125.746094 112.851562,124.910156 111.1875,123.246094 L74.980469,87.046875 C71.644531,83.710938 71.644531,78.320312 74.980469,74.980469 C78.308594,71.644531 83.710938,71.644531 87.046875,74.980469 L123.253906,111.179688 C126.59375,114.515625 126.59375,119.910156 123.253906,123.246094 C121.589844,124.917969 119.398438,125.746094 117.222656,125.746094 Z" id="Path"></path>
            <path d="M81.015625,439.519531 C78.832031,439.519531 76.644531,438.679688 74.980469,437.019531 C71.644531,433.679688 71.644531,428.289062 74.980469,424.953125 L111.1875,388.753906 C114.527344,385.417969 119.925781,385.417969 123.253906,388.753906 C126.59375,392.089844 126.59375,397.484375 123.253906,400.820312 L87.046875,437.019531 C85.382812,438.679688 83.199219,439.519531 81.015625,439.519531 Z" id="Path"></path>
            <path d="M394.785156,125.746094 C392.601562,125.746094 390.417969,124.910156 388.753906,123.246094 C385.417969,119.910156 385.417969,114.515625 388.753906,111.179688 L424.953125,74.980469 C428.289062,71.644531 433.679688,71.644531 437.019531,74.980469 C440.355469,78.320312 440.355469,83.710938 437.019531,87.046875 L400.820312,123.246094 C399.148438,124.917969 396.96875,125.746094 394.785156,125.746094 Z" id="Path"></path>
        </g>
    </g>
</svg>