<?xml version="1.0" encoding="UTF-8"?>
<svg width="448px" height="446px" viewBox="0 0 448 446" version="1.1" xmlns="http://www.w3.org/2000/svg" xmlns:xlink="http://www.w3.org/1999/xlink">
    <!-- Generator: Sketch 52.5 (67469) - http://www.bohemiancoding.com/sketch -->
    <title>Slice 1</title>
    <desc>Created with Sketch.</desc>
    <g id="Page-1" stroke="none" stroke-width="1" fill="none" fill-rule="evenodd">
        <g id="water" fill="#FFFFFF">
            <path d="M43.789062,299.4375 C79.882812,335.515625 137.347656,338.632812 177.128906,306.667969 C216.90625,274.703125 226.238281,217.910156 198.777344,174.898438 L122.929688,56.144531 C121.089844,53.269531 117.914062,51.527344 114.5,51.527344 C111.085938,51.527344 107.910156,53.269531 106.070312,56.144531 L30.222656,174.898438 C4.964844,214.453125 10.605469,266.25 43.789062,299.4375 Z M47.078125,185.664062 L114.5,80.105469 L181.921875,185.664062 C203.886719,220.074219 196.421875,265.503906 164.597656,291.074219 C132.777344,316.644531 86.804688,314.152344 57.933594,285.292969 C31.386719,258.746094 26.871094,217.308594 47.078125,185.664062 Z" id="Shape" fill-rule="nonzero"></path>
            <path d="M129.878906,285.414062 C131.019531,285.410156 132.152344,285.214844 133.226562,284.832031 C161.65625,274.703125 176.523438,243.46875 166.457031,215.015625 C164.648438,209.792969 158.949219,207.03125 153.730469,208.839844 C148.511719,210.652344 145.75,216.347656 147.558594,221.566406 C147.574219,221.613281 147.589844,221.660156 147.605469,221.703125 C153.992188,239.75 144.5625,259.5625 126.527344,265.984375 C121.9375,267.609375 119.183594,272.308594 120.011719,277.109375 C120.835938,281.910156 125.003906,285.417969 129.875,285.414062 L129.878906,285.414062 Z" id="Path"></path>
            <path d="M288.398438,209.4375 C319.078125,240.09375 367.917969,242.742188 401.730469,215.574219 C435.539062,188.40625 443.46875,140.140625 420.132812,103.578125 L356.929688,4.617188 C355.089844,1.742188 351.914062,0 348.5,0 C345.085938,0 341.910156,1.742188 340.070312,4.617188 L276.867188,103.578125 C255.394531,137.199219 260.191406,181.230469 288.398438,209.4375 Z M293.722656,114.347656 L348.5,28.578125 L403.277344,114.347656 C420.65625,141.550781 415.433594,177.382812 391.019531,198.5 C366.605469,219.613281 330.394531,219.613281 305.980469,198.5 C281.566406,177.382812 276.34375,141.550781 293.722656,114.347656 Z" id="Shape" fill-rule="nonzero"></path>
            <path d="M352.039062,192.632812 C353.179688,192.632812 354.3125,192.4375 355.386719,192.054688 C385.097656,181.5 400.632812,148.863281 390.085938,119.148438 C388.921875,115.75 386.03125,113.238281 382.503906,112.5625 C378.980469,111.886719 375.363281,113.152344 373.027344,115.878906 C370.695312,118.605469 370,122.375 371.207031,125.753906 L371.238281,125.839844 C378.09375,145.144531 367.996094,166.351562 348.691406,173.207031 C344.097656,174.832031 341.347656,179.527344 342.171875,184.332031 C343,189.132812 347.167969,192.636719 352.039062,192.632812 Z" id="Path"></path>
            <path d="M384,401.109375 C364.664062,401.109375 354.316406,408.871094 346,415.109375 C338.550781,420.699219 332.664062,425.109375 320,425.109375 C307.335938,425.109375 301.449219,420.699219 294,415.109375 C285.683594,408.871094 275.332031,401.109375 256,401.109375 C236.667969,401.109375 226.316406,408.871094 218,415.109375 C210.550781,420.699219 204.667969,425.109375 192,425.109375 C179.332031,425.109375 173.449219,420.699219 166,415.109375 C157.683594,408.871094 147.335938,401.109375 128,401.109375 C108.664062,401.109375 98.316406,408.871094 90,415.109375 C82.550781,420.699219 76.667969,425.109375 64,425.109375 C51.332031,425.109375 45.449219,420.699219 38,415.109375 C29.683594,408.871094 19.332031,401.109375 0,401.109375 L0,421.109375 C12.664062,421.109375 18.550781,425.523438 26,431.109375 C34.316406,437.347656 44.667969,445.109375 64,445.109375 C83.332031,445.109375 93.683594,437.347656 102,431.109375 C109.449219,425.523438 115.332031,421.109375 128,421.109375 C140.667969,421.109375 146.550781,425.523438 154,431.109375 C162.316406,437.347656 172.664062,445.109375 192,445.109375 C211.335938,445.109375 221.683594,437.347656 230,431.109375 C237.449219,425.523438 243.332031,421.109375 256,421.109375 C268.667969,421.109375 274.550781,425.523438 282,431.109375 C290.316406,437.347656 300.667969,445.109375 320,445.109375 C339.332031,445.109375 349.683594,437.347656 358,431.109375 C365.449219,425.523438 371.335938,421.109375 384,421.109375 C396.664062,421.109375 402.550781,425.523438 410,431.109375 C418.316406,437.347656 428.667969,445.109375 448,445.109375 L448,425.109375 C435.332031,425.109375 429.449219,420.699219 422,415.109375 C413.679688,408.871094 403.328125,401.109375 384,401.109375 Z" id="Path"></path>
            <path d="M384,341.109375 C364.664062,341.109375 354.316406,348.871094 346,355.109375 C338.550781,360.699219 332.664062,365.109375 320,365.109375 C307.335938,365.109375 301.449219,360.699219 294,355.109375 C285.683594,348.871094 275.332031,341.109375 256,341.109375 C236.667969,341.109375 226.316406,348.871094 218,355.109375 C210.550781,360.699219 204.667969,365.109375 192,365.109375 C179.332031,365.109375 173.449219,360.699219 166,355.109375 C157.683594,348.871094 147.335938,341.109375 128,341.109375 C108.664062,341.109375 98.316406,348.871094 90,355.109375 C82.550781,360.699219 76.667969,365.109375 64,365.109375 C51.332031,365.109375 45.449219,360.699219 38,355.109375 C29.683594,348.871094 19.332031,341.109375 0,341.109375 L0,361.109375 C12.664062,361.109375 18.550781,365.523438 26,371.109375 C34.316406,377.347656 44.667969,385.109375 64,385.109375 C83.332031,385.109375 93.683594,377.347656 102,371.109375 C109.449219,365.523438 115.332031,361.109375 128,361.109375 C140.667969,361.109375 146.550781,365.523438 154,371.109375 C162.316406,377.347656 172.664062,385.109375 192,385.109375 C211.335938,385.109375 221.683594,377.347656 230,371.109375 C237.449219,365.523438 243.332031,361.109375 256,361.109375 C268.667969,361.109375 274.550781,365.523438 282,371.109375 C290.316406,377.347656 300.667969,385.109375 320,385.109375 C339.332031,385.109375 349.683594,377.347656 358,371.109375 C365.449219,365.523438 371.335938,361.109375 384,361.109375 C396.664062,361.109375 402.550781,365.523438 410,371.109375 C418.316406,377.347656 428.667969,385.109375 448,385.109375 L448,365.109375 C435.332031,365.109375 429.449219,360.699219 422,355.109375 C413.679688,348.871094 403.328125,341.109375 384,341.109375 Z" id="Path"></path>
        </g>
    </g>
</svg>